<svg xmlns="http://www.w3.org/2000/svg" version="1.1" xmlns:xlink="http://www.w3.org/1999/xlink" xmlns:svgjs="http://svgjs.com/svgjs" width="1440" height="560" preserveAspectRatio="none" viewBox="0 0 1440 560"><g mask="url(&quot;#SvgjsMask1003&quot;)" fill="none"><rect width="1440" height="560" x="0" y="0" fill="rgba(184, 190, 197, 1)"></rect><path d="M1440 0L1410.3 0L1440 271.11z" fill="rgba(255, 255, 255, .1)"></path><path d="M1410.3 0L1440 271.11L1440 290.98L691.39 0z" fill="rgba(255, 255, 255, .075)"></path><path d="M691.39 0L1440 290.98L1440 344.17L282.40999999999997 0z" fill="rgba(255, 255, 255, .05)"></path><path d="M282.40999999999985 0L1440 344.17L1440 408.82000000000005L117.92999999999986 0z" fill="rgba(255, 255, 255, .025)"></path><path d="M0 560L120.84 560L0 547.69z" fill="rgba(0, 0, 0, .1)"></path><path d="M0 547.69L120.84 560L771.34 560L0 328.61z" fill="rgba(0, 0, 0, .075)"></path><path d="M0 328.61L771.34 560L790.36 560L0 131.63000000000002z" fill="rgba(0, 0, 0, .05)"></path><path d="M0 131.63L790.36 560L1224.08 560L0 103.91z" fill="rgba(0, 0, 0, .025)"></path></g><defs><mask id="SvgjsMask1003"><rect width="1440" height="560" fill="#ffffff"></rect></mask></defs></svg>